<svg height="3086" width="720" xmlns="http://www.w3.org/2000/svg">
<rect height="3086" fill="#555" width="720"></rect>
<text fill="#7f7" font-family="Courier New" font-size="12" xml:space="preserve">
<tspan x="10" y="26">56 megabytes installed</tspan>
<tspan x="10" y="42"></tspan>
<tspan x="10" y="58">node_modules</tspan>
<tspan x="10" y="74">└─┬ perfjankie@2.1.2 </tspan>
<tspan x="10" y="90">  ├─┬ browser-perf@1.4.11 </tspan>
<tspan x="10" y="106">  │ ├── byline@4.2.2 </tspan>
<tspan x="10" y="122">  │ ├─┬ cli-table@0.3.1 </tspan>
<tspan x="10" y="138">  │ │ └── colors@1.0.3 </tspan>
<tspan x="10" y="154">  │ ├── commander@2.9.0 </tspan>
<tspan x="10" y="170">  │ ├─┬ debug@2.6.4 </tspan>
<tspan x="10" y="186">  │ │ └── ms@0.7.3 </tspan>
<tspan x="10" y="202">  │ ├─┬ event-stream@3.3.4 </tspan>
<tspan x="10" y="218">  │ │ ├── duplexer@0.1.1 </tspan>
<tspan x="10" y="234">  │ │ ├── from@0.1.7 </tspan>
<tspan x="10" y="250">  │ │ ├── map-stream@0.1.0 </tspan>
<tspan x="10" y="266">  │ │ ├── pause-stream@0.0.11 </tspan>
<tspan x="10" y="282">  │ │ ├── split@0.3.3 </tspan>
<tspan x="10" y="298">  │ │ └── stream-combiner@0.0.4 </tspan>
<tspan x="10" y="314">  │ ├── glob@6.0.4 </tspan>
<tspan x="10" y="330">  │ ├── jsmin@1.0.1 </tspan>
<tspan x="10" y="346">  │ ├─┬ JSONStream@1.3.1 </tspan>
<tspan x="10" y="362">  │ │ ├── jsonparse@1.3.0 </tspan>
<tspan x="10" y="378">  │ │ └── through@2.3.8 </tspan>
<tspan x="10" y="394">  │ ├─┬ request@2.81.0 </tspan>
<tspan x="10" y="410">  │ │ ├── aws-sign2@0.6.0 </tspan>
<tspan x="10" y="426">  │ │ ├── aws4@1.6.0 </tspan>
<tspan x="10" y="442">  │ │ ├── caseless@0.12.0 </tspan>
<tspan x="10" y="458">  │ │ ├─┬ combined-stream@1.0.5 </tspan>
<tspan x="10" y="474">  │ │ │ └── delayed-stream@1.0.0 </tspan>
<tspan x="10" y="490">  │ │ ├── extend@3.0.0 </tspan>
<tspan x="10" y="506">  │ │ ├── forever-agent@0.6.1 </tspan>
<tspan x="10" y="522">  │ │ ├─┬ form-data@2.1.4 </tspan>
<tspan x="10" y="538">  │ │ │ └── asynckit@0.4.0 </tspan>
<tspan x="10" y="554">  │ │ ├─┬ har-validator@4.2.1 </tspan>
<tspan x="10" y="570">  │ │ │ ├─┬ ajv@4.11.7 </tspan>
<tspan x="10" y="586">  │ │ │ │ ├── co@4.6.0 </tspan>
<tspan x="10" y="602">  │ │ │ │ └─┬ json-stable-stringify@1.0.1 </tspan>
<tspan x="10" y="618">  │ │ │ │   └── jsonify@0.0.0 </tspan>
<tspan x="10" y="634">  │ │ │ └── har-schema@1.0.5 </tspan>
<tspan x="10" y="650">  │ │ ├─┬ hawk@3.1.3 </tspan>
<tspan x="10" y="666">  │ │ │ ├── boom@2.10.1 </tspan>
<tspan x="10" y="682">  │ │ │ ├── cryptiles@2.0.5 </tspan>
<tspan x="10" y="698">  │ │ │ ├── hoek@2.16.3 </tspan>
<tspan x="10" y="714">  │ │ │ └── sntp@1.0.9 </tspan>
<tspan x="10" y="730">  │ │ ├─┬ http-signature@1.1.1 </tspan>
<tspan x="10" y="746">  │ │ │ ├── assert-plus@0.2.0 </tspan>
<tspan x="10" y="762">  │ │ │ ├─┬ jsprim@1.4.0 </tspan>
<tspan x="10" y="778">  │ │ │ │ ├── assert-plus@1.0.0 </tspan>
<tspan x="10" y="794">  │ │ │ │ ├── extsprintf@1.0.2 </tspan>
<tspan x="10" y="810">  │ │ │ │ ├── json-schema@0.2.3 </tspan>
<tspan x="10" y="826">  │ │ │ │ └── verror@1.3.6 </tspan>
<tspan x="10" y="842">  │ │ │ └─┬ sshpk@1.13.0 </tspan>
<tspan x="10" y="858">  │ │ │   ├── asn1@0.2.3 </tspan>
<tspan x="10" y="874">  │ │ │   ├── assert-plus@1.0.0 </tspan>
<tspan x="10" y="890">  │ │ │   ├── bcrypt-pbkdf@1.0.1 </tspan>
<tspan x="10" y="906">  │ │ │   ├─┬ dashdash@1.14.1 </tspan>
<tspan x="10" y="922">  │ │ │   │ └── assert-plus@1.0.0 </tspan>
<tspan x="10" y="938">  │ │ │   ├── ecc-jsbn@0.1.1 </tspan>
<tspan x="10" y="954">  │ │ │   ├─┬ getpass@0.1.6 </tspan>
<tspan x="10" y="970">  │ │ │   │ └── assert-plus@1.0.0 </tspan>
<tspan x="10" y="986">  │ │ │   ├── jodid25519@1.0.2 </tspan>
<tspan x="10" y="1002">  │ │ │   ├── jsbn@0.1.1 </tspan>
<tspan x="10" y="1018">  │ │ │   └── tweetnacl@0.14.5 </tspan>
<tspan x="10" y="1034">  │ │ ├── is-typedarray@1.0.0 </tspan>
<tspan x="10" y="1050">  │ │ ├── isstream@0.1.2 </tspan>
<tspan x="10" y="1066">  │ │ ├── json-stringify-safe@5.0.1 </tspan>
<tspan x="10" y="1082">  │ │ ├─┬ mime-types@2.1.15 </tspan>
<tspan x="10" y="1098">  │ │ │ └── mime-db@1.27.0 </tspan>
<tspan x="10" y="1114">  │ │ ├── oauth-sign@0.8.2 </tspan>
<tspan x="10" y="1130">  │ │ ├── performance-now@0.2.0 </tspan>
<tspan x="10" y="1146">  │ │ ├── qs@6.4.0 </tspan>
<tspan x="10" y="1162">  │ │ ├── safe-buffer@5.0.1 </tspan>
<tspan x="10" y="1178">  │ │ ├── stringstream@0.0.5 </tspan>
<tspan x="10" y="1194">  │ │ ├─┬ tough-cookie@2.3.2 </tspan>
<tspan x="10" y="1210">  │ │ │ └── punycode@1.4.1 </tspan>
<tspan x="10" y="1226">  │ │ ├── tunnel-agent@0.6.0 </tspan>
<tspan x="10" y="1242">  │ │ └── uuid@3.0.1 </tspan>
<tspan x="10" y="1258">  │ └─┬ wd@0.4.0 </tspan>
<tspan x="10" y="1274">  │   ├─┬ archiver@0.14.4 </tspan>
<tspan x="10" y="1290">  │   │ ├── async@0.9.2 </tspan>
<tspan x="10" y="1306">  │   │ ├── buffer-crc32@0.2.13 </tspan>
<tspan x="10" y="1322">  │   │ ├─┬ glob@4.3.5 </tspan>
<tspan x="10" y="1338">  │   │ │ └── minimatch@2.0.10 </tspan>
<tspan x="10" y="1354">  │   │ ├── lazystream@0.1.0 </tspan>
<tspan x="10" y="1370">  │   │ ├── lodash@3.2.0 </tspan>
<tspan x="10" y="1386">  │   │ ├─┬ readable-stream@1.0.34 </tspan>
<tspan x="10" y="1402">  │   │ │ ├── core-util-is@1.0.2 </tspan>
<tspan x="10" y="1418">  │   │ │ ├── isarray@0.0.1 </tspan>
<tspan x="10" y="1434">  │   │ │ └── string_decoder@0.10.31 </tspan>
<tspan x="10" y="1450">  │   │ ├─┬ tar-stream@1.1.5 </tspan>
<tspan x="10" y="1466">  │   │ │ ├── end-of-stream@1.4.0 </tspan>
<tspan x="10" y="1482">  │   │ │ └── xtend@4.0.1 </tspan>
<tspan x="10" y="1498">  │   │ └─┬ zip-stream@0.5.2 </tspan>
<tspan x="10" y="1514">  │   │   ├─┬ compress-commons@0.2.9 </tspan>
<tspan x="10" y="1530">  │   │   │ ├── crc32-stream@0.3.4 </tspan>
<tspan x="10" y="1546">  │   │   │ └── node-int64@0.3.3 </tspan>
<tspan x="10" y="1562">  │   │   └── lodash@3.2.0 </tspan>
<tspan x="10" y="1578">  │   ├── async@1.0.0 </tspan>
<tspan x="10" y="1594">  │   ├── lodash@3.9.3 </tspan>
<tspan x="10" y="1610">  │   ├─┬ request@2.55.0 </tspan>
<tspan x="10" y="1626">  │   │ ├── aws-sign2@0.5.0 </tspan>
<tspan x="10" y="1642">  │   │ ├── bl@0.9.5 </tspan>
<tspan x="10" y="1658">  │   │ ├── caseless@0.9.0 </tspan>
<tspan x="10" y="1674">  │   │ ├─┬ combined-stream@0.0.7 </tspan>
<tspan x="10" y="1690">  │   │ │ └── delayed-stream@0.0.5 </tspan>
<tspan x="10" y="1706">  │   │ ├─┬ form-data@0.2.0 </tspan>
<tspan x="10" y="1722">  │   │ │ └── async@0.9.2 </tspan>
<tspan x="10" y="1738">  │   │ ├─┬ har-validator@1.8.0 </tspan>
<tspan x="10" y="1754">  │   │ │ ├── bluebird@2.11.0 </tspan>
<tspan x="10" y="1770">  │   │ │ └─┬ is-my-json-valid@2.16.0 </tspan>
<tspan x="10" y="1786">  │   │ │   ├── generate-function@2.0.0 </tspan>
<tspan x="10" y="1802">  │   │ │   ├─┬ generate-object-property@1.2.0 </tspan>
<tspan x="10" y="1818">  │   │ │   │ └── is-property@1.0.2 </tspan>
<tspan x="10" y="1834">  │   │ │   └── jsonpointer@4.0.1 </tspan>
<tspan x="10" y="1850">  │   │ ├── hawk@2.3.1 </tspan>
<tspan x="10" y="1866">  │   │ ├─┬ http-signature@0.10.1 </tspan>
<tspan x="10" y="1882">  │   │ │ ├── asn1@0.1.11 </tspan>
<tspan x="10" y="1898">  │   │ │ ├── assert-plus@0.1.5 </tspan>
<tspan x="10" y="1914">  │   │ │ └── ctype@0.5.3 </tspan>
<tspan x="10" y="1930">  │   │ ├─┬ mime-types@2.0.14 </tspan>
<tspan x="10" y="1946">  │   │ │ └── mime-db@1.12.0 </tspan>
<tspan x="10" y="1962">  │   │ ├── node-uuid@1.4.8 </tspan>
<tspan x="10" y="1978">  │   │ ├── oauth-sign@0.6.0 </tspan>
<tspan x="10" y="1994">  │   │ ├── qs@2.4.2 </tspan>
<tspan x="10" y="2010">  │   │ └── tunnel-agent@0.4.3 </tspan>
<tspan x="10" y="2026">  │   ├── underscore.string@3.0.3 </tspan>
<tspan x="10" y="2042">  │   └── vargs@0.1.0 </tspan>
<tspan x="10" y="2058">  ├─┬ commander@2.8.1 </tspan>
<tspan x="10" y="2074">  │ └── graceful-readlink@1.0.1 </tspan>
<tspan x="10" y="2090">  ├─┬ glob@5.0.15 </tspan>
<tspan x="10" y="2106">  │ ├─┬ inflight@1.0.6 </tspan>
<tspan x="10" y="2122">  │ │ └── wrappy@1.0.2 </tspan>
<tspan x="10" y="2138">  │ ├── inherits@2.0.3 </tspan>
<tspan x="10" y="2154">  │ ├─┬ minimatch@3.0.3 </tspan>
<tspan x="10" y="2170">  │ │ └─┬ brace-expansion@1.1.7 </tspan>
<tspan x="10" y="2186">  │ │   ├── balanced-match@0.4.2 </tspan>
<tspan x="10" y="2202">  │ │   └── concat-map@0.0.1 </tspan>
<tspan x="10" y="2218">  │ ├── once@1.4.0 </tspan>
<tspan x="10" y="2234">  │ └── path-is-absolute@1.0.1 </tspan>
<tspan x="10" y="2250">  ├─┬ nano@6.1.5 </tspan>
<tspan x="10" y="2266">  │ ├── errs@0.3.2 </tspan>
<tspan x="10" y="2282">  │ ├─┬ follow@0.12.1 </tspan>
<tspan x="10" y="2298">  │ │ ├── browser-request@0.3.3 </tspan>
<tspan x="10" y="2314">  │ │ └─┬ request@2.55.0 </tspan>
<tspan x="10" y="2330">  │ │   ├── aws-sign2@0.5.0 </tspan>
<tspan x="10" y="2346">  │ │   ├── caseless@0.9.0 </tspan>
<tspan x="10" y="2362">  │ │   ├─┬ combined-stream@0.0.7 </tspan>
<tspan x="10" y="2378">  │ │   │ └── delayed-stream@0.0.5 </tspan>
<tspan x="10" y="2394">  │ │   ├─┬ form-data@0.2.0 </tspan>
<tspan x="10" y="2410">  │ │   │ └── async@0.9.2 </tspan>
<tspan x="10" y="2426">  │ │   ├── har-validator@1.8.0 </tspan>
<tspan x="10" y="2442">  │ │   ├── hawk@2.3.1 </tspan>
<tspan x="10" y="2458">  │ │   ├─┬ http-signature@0.10.1 </tspan>
<tspan x="10" y="2474">  │ │   │ ├── asn1@0.1.11 </tspan>
<tspan x="10" y="2490">  │ │   │ └── assert-plus@0.1.5 </tspan>
<tspan x="10" y="2506">  │ │   ├─┬ mime-types@2.0.14 </tspan>
<tspan x="10" y="2522">  │ │   │ └── mime-db@1.12.0 </tspan>
<tspan x="10" y="2538">  │ │   ├── node-uuid@1.4.8 </tspan>
<tspan x="10" y="2554">  │ │   ├── oauth-sign@0.6.0 </tspan>
<tspan x="10" y="2570">  │ │   ├── qs@2.4.2 </tspan>
<tspan x="10" y="2586">  │ │   └── tunnel-agent@0.4.3 </tspan>
<tspan x="10" y="2602">  │ └── underscore@1.8.3 </tspan>
<tspan x="10" y="2618">  ├── q@1.4.1 </tspan>
<tspan x="10" y="2634">  ├─┬ sauce-tunnel@2.5.0 </tspan>
<tspan x="10" y="2650">  │ ├─┬ chalk@1.1.3 </tspan>
<tspan x="10" y="2666">  │ │ ├── ansi-styles@2.2.1 </tspan>
<tspan x="10" y="2682">  │ │ ├── escape-string-regexp@1.0.5 </tspan>
<tspan x="10" y="2698">  │ │ ├─┬ has-ansi@2.0.0 </tspan>
<tspan x="10" y="2714">  │ │ │ └── ansi-regex@2.1.1 </tspan>
<tspan x="10" y="2730">  │ │ ├── strip-ansi@3.0.1 </tspan>
<tspan x="10" y="2746">  │ │ └── supports-color@2.0.0 </tspan>
<tspan x="10" y="2762">  │ └── split@1.0.0 </tspan>
<tspan x="10" y="2778">  ├── semver@5.3.0 </tspan>
<tspan x="10" y="2794">  └─┬ serve-static@1.12.1 </tspan>
<tspan x="10" y="2810">    ├── encodeurl@1.0.1 </tspan>
<tspan x="10" y="2826">    ├── escape-html@1.0.3 </tspan>
<tspan x="10" y="2842">    ├── parseurl@1.3.1 </tspan>
<tspan x="10" y="2858">    └─┬ send@0.15.1 </tspan>
<tspan x="10" y="2874">      ├── debug@2.6.1 </tspan>
<tspan x="10" y="2890">      ├── depd@1.1.0 </tspan>
<tspan x="10" y="2906">      ├── destroy@1.0.4 </tspan>
<tspan x="10" y="2922">      ├── etag@1.8.0 </tspan>
<tspan x="10" y="2938">      ├── fresh@0.5.0 </tspan>
<tspan x="10" y="2954">      ├─┬ http-errors@1.6.1 </tspan>
<tspan x="10" y="2970">      │ └── setprototypeof@1.0.3 </tspan>
<tspan x="10" y="2986">      ├── mime@1.3.4 </tspan>
<tspan x="10" y="3002">      ├── ms@0.7.2 </tspan>
<tspan x="10" y="3018">      ├─┬ on-finished@2.3.0 </tspan>
<tspan x="10" y="3034">      │ └── ee-first@1.1.1 </tspan>
<tspan x="10" y="3050">      ├── range-parser@1.2.0 </tspan>
<tspan x="10" y="3066">      └── statuses@1.3.1</tspan>
</text>
</svg>
